<?xml version="1.0" encoding="utf-8"?>
<!-- Generator: Adobe Illustrator 19.2.1, SVG Export Plug-In . SVG Version: 6.00 Build 0)  -->
<svg version="1.1" xmlns="http://www.w3.org/2000/svg" xmlns:xlink="http://www.w3.org/1999/xlink" x="0px" y="0px"
	 viewBox="0 0 592.5 154" style="enable-background:new 0 0 592.5 154;" xml:space="preserve">
<style type="text/css">
	.st0{fill:#FFFFFF;}
	.st1{display:none;}
</style>
<g id="Qantas_Tail">
	<path class="st0" d="M68.4,20.4C55.6,7.6,38.2,0,20.1,0H0l1.5,3.9C14.7,38.2,39.7,22.4,73,52.9l0.4,0.3c4.5,4.1,7.6,0.3,6.1-2.1
		c-1.4-2.2-1.2-3.4-1.1-3.7c6.6,1.8,12.7,5.1,17.7,9.4l-0.4,0.9c-2.5,5-27.1,2.9-27.4,13.3c-0.1,2.9,1.7,5.3,4.2,6.3l4.9,2
		c16,6.4,30.2,16.2,41.8,28.4c0.2,0.2,0.2,0.6,0,0.8c-0.1,0.1-0.3,0.2-0.4,0.2c-0.1,0-0.3,0-0.4-0.1l0,0
		c-16.8-13.5-36.2-21.7-56-24.8c-1.4-0.2-2.5-1.4-2.7-2.8C55.8,46.2,21.3,43.8,8.2,21.4L44.6,117h120L68.4,20.4z"/>
</g>
<g id="Qantas__x2F__SOA_Type">
	<g>
		<g>
			<path class="st0" d="M176.8,95.5C153,95.5,138,83.2,138,67.7c0-15.7,15.9-27.8,39.5-27.8c23.5,0,39.5,12.1,39.5,27.2
				c0,6.7-3,12.3-8.7,16.9h14l-3.3,5.7c-2.1,3.6-4.7,5.8-10.3,5.8H176.8z M177.4,82.9c12.9,0,23.9-6.4,23.9-15.2
				s-10.9-15.2-23.9-15.2c-12.9,0-23.9,6.4-23.9,15.2S164.5,82.9,177.4,82.9z"/>
			<path class="st0" d="M280.4,86.1h-37.3l-5.3,9.4h-15.5l25.9-44.8c2-3.5,5-6.3,10.8-6.3h5.8c5.9,0,8.8,2.7,10.8,6.3l25.9,44.8
				h-15.8L280.4,86.1z M249.4,74.9h24.7l-11.5-20.4c-0.3-0.5-0.5-0.6-0.9-0.6c-0.4,0-0.6,0.1-0.9,0.6L249.4,74.9z"/>
			<path class="st0" d="M375.3,44.4v51.1h-13.8l-40.6-33.9v33.9H307V44.4h8.7c4.4,0,6.7,1.2,9.2,3.3l36.6,30.5V44.4H375.3z"/>
			<path class="st0" d="M424.5,55.9v39.6h-13.8V55.9h-28.4V44.4h70.5v11.5H424.5z"/>
			<path class="st0" d="M498.9,86.1h-37.3l-5.3,9.4h-15.5l25.9-44.8c2-3.5,5-6.3,10.8-6.3h5.8c5.9,0,8.8,2.7,10.8,6.3L520,95.5
				h-15.8L498.9,86.1z M467.9,74.9h24.7l-11.5-20.4c-0.3-0.5-0.5-0.6-0.9-0.6c-0.4,0-0.6,0.1-0.9,0.6L467.9,74.9z"/>
			<path class="st0" d="M524.8,91.8l-1.3-0.4l3.5-11.1c10,3.2,20.6,4.5,30.2,4.5c15.7,0,19.6-1.8,19.6-3.8c0-0.8-0.5-1.4-1.8-1.8
				c-1.6-0.5-5.9-1.4-18.8-3.5c-14.2-2.3-20.7-3.5-25.4-5.7c-4.7-2.2-7.6-5.7-7.6-10.8c0-3.9,1.9-7,5-9.5c5.5-4.2,14.8-5.9,24.9-5.9
				c13.1,0,24.1,1.1,36.3,4.1l1.1,0.3l-2.9,10.8c-13.6-2.9-21.2-3.7-31.6-3.9c-7.3-0.1-12.3,0.5-15,1.3c-1.5,0.5-2.1,1.2-2.1,2
				c0,0.8,0.5,1.4,2,1.9c1.6,0.5,4.3,1.2,18.3,3.4c15.1,2.5,20.1,3.5,24.3,5.1c5.7,2.2,9.1,6.2,9.1,11.2c0,6.3-4.9,11-13.4,13.6
				c-5.2,1.6-12.3,2.5-20.2,2.5C546.5,96.2,533.3,94.6,524.8,91.8z"/>
		</g>
	</g>
	<g>
		<path class="st0" d="M316.5,125.2v-0.7c0-2.9-2.1-5.1-5.7-5.1c-3.6,0-5.6,1.8-5.6,4.3c0,2,1.4,3.5,3.3,4.2l4.8,1.9
			c3.3,1.3,7,3.1,7,8c0,5.1-3.9,8.4-9.5,8.4c-5.6,0-9.5-3.1-9.5-8.1v-0.7h3.3v0.9c0,2.9,2.3,5.1,6.2,5.1c3.9,0,6.2-2.2,6.2-5.1
			c0-3.1-2.3-4.3-5-5.4l-4.1-1.7c-3.3-1.3-6-3.4-6-7.2c0-4.3,3.5-7.4,8.9-7.4c5.3,0,9,3.1,9,8.1v0.5H316.5z"/>
		<path class="st0" d="M328.1,126.9c1.3-1.8,3.3-2.9,5.9-2.9c4.7,0,7.5,3.1,7.5,7.9v6.4c0,4.8-2.8,7.9-7.5,7.9
			c-2.4,0-4.3-0.9-5.6-2.6V154h-3.2v-29.6h2.5L328.1,126.9z M328.3,132.1v6c0,3,1.9,5.3,5.1,5.3c3.1,0,4.8-2.1,4.8-5v-6.7
			c0-2.8-1.6-5-4.8-5C330.2,126.8,328.3,129.1,328.3,132.1z"/>
		<path class="st0" d="M348.1,116.2c1.2,0,2.1,0.9,2.1,2.1c0,1.1-0.9,2.1-2.1,2.1c-1.2,0-2.1-0.9-2.1-2.1
			C345.9,117.1,346.9,116.2,348.1,116.2z M349.6,124.4v21.4h-3.2v-21.4H349.6z"/>
		<path class="st0" d="M355.2,145.8v-21.4h2.5l0.5,2.7c1.2-1.9,3.2-3.2,5.8-3.2c0.4,0,0.7,0,1.1,0.1v3.1c-0.4,0-0.8-0.1-1.3-0.1
			c-3.1,0-5.3,2.1-5.3,5.3v13.5H355.2z"/>
		<path class="st0" d="M370.6,116.2c1.2,0,2.1,0.9,2.1,2.1c0,1.1-0.9,2.1-2.1,2.1c-1.2,0-2.1-0.9-2.1-2.1
			C368.5,117.1,369.4,116.2,370.6,116.2z M372.2,124.4v21.4h-3.2v-21.4H372.2z"/>
		<path class="st0" d="M376.2,124.5h4.2v-5.8h3.3v5.8h4.2v2.7h-4.2v18.6h-3.3v-18.6h-4.2V124.5z"/>
		<path class="st0" d="M416,137.9c0,5.1-3.4,8.3-8.3,8.3c-4.9,0-8.2-3.2-8.2-8.3v-5.7c0-5.1,3.3-8.3,8.2-8.3c4.9,0,8.3,3.2,8.3,8.3
			V137.9z M402.7,138.2c0,3,1.8,5.3,5,5.3c3.2,0,5-2.3,5-5.3V132c0-3-1.8-5.3-5-5.3c-3.2,0-5,2.3-5,5.3V138.2z"/>
		<path class="st0" d="M419.2,124.5h3.5v-1.1c0-4.7,2.5-7.3,7.3-7.3h1.9v2.8h-1.7c-3.1,0-4.2,1.8-4.2,4.3v1.3h5.6v2.7H426v18.6h-3.3
			v-18.6h-3.5V124.5z"/>
		<path class="st0" d="M441.7,145.8L451,117h3.4l9.4,28.8h-3.5l-2.1-6.6h-11.1l-2.1,6.6H441.7z M448,136.3h9.3l-4.7-14.8L448,136.3z
			"/>
		<path class="st0" d="M467.1,124.4h3.2v14.2c0,2.7,1.5,4.8,4.6,4.8c3.1,0,5-2.3,5-5.3v-13.8h3.2v21.4h-2.5l-0.5-2.5
			c-1.3,1.8-3.4,2.9-5.9,2.9c-4.6,0-7.2-3-7.2-7.7V124.4z"/>
		<path class="st0" d="M490.6,139.2v0.7c0,2.1,1.9,3.7,5,3.7c3,0,4.6-1.5,4.6-3.6c0-1.8-0.8-2.6-2.9-3.2l-4.2-1.3
			c-2.5-0.7-5-2.3-5-5.6c0-3.2,3-6,7.3-6c4.6,0,7.7,2.3,7.7,6.3v0.3h-3.1V130c0-2-1.7-3.6-4.6-3.6c-2,0-4.2,1-4.2,3.2
			c0,1.4,0.8,2.3,2.6,2.8l3.7,1.1c3.2,1,5.8,2.3,5.8,6c0,3.9-3,6.5-7.7,6.5c-4.7,0-8.1-2.5-8.1-6.5v-0.6H490.6z"/>
		<path class="st0" d="M506.7,124.5h4.2v-5.8h3.3v5.8h4.2v2.7h-4.2v18.6h-3.3v-18.6h-4.2V124.5z"/>
		<path class="st0" d="M522.3,145.8v-21.4h2.5l0.5,2.7c1.2-1.9,3.2-3.2,5.8-3.2c0.4,0,0.7,0,1.1,0.1v3.1c-0.4,0-0.8-0.1-1.3-0.1
			c-3.1,0-5.3,2.1-5.3,5.3v13.5H522.3z"/>
		<path class="st0" d="M535.2,131.8c0-4.8,2.8-7.9,7.5-7.9c2.6,0,4.6,1.1,5.9,2.9l0.5-2.5h2.5v21.4h-2.5l-0.5-2.5
			c-1.3,1.8-3.4,2.9-5.9,2.9c-4.7,0-7.5-3.1-7.5-7.9V131.8z M548.3,138.1v-6c0-3-1.9-5.3-5.1-5.3c-3.1,0-4.8,2.2-4.8,5v6.7
			c0,2.8,1.6,5,4.8,5C546.4,143.4,548.3,141.1,548.3,138.1z"/>
		<path class="st0" d="M560.4,116.1v29.7h-3.2v-29.7H560.4z"/>
		<path class="st0" d="M567.7,116.2c1.2,0,2.1,0.9,2.1,2.1c0,1.1-0.9,2.1-2.1,2.1c-1.2,0-2.1-0.9-2.1-2.1
			C565.6,117.1,566.5,116.2,567.7,116.2z M569.3,124.4v21.4h-3.2v-21.4H569.3z"/>
		<path class="st0" d="M574.2,131.8c0-4.8,2.8-7.9,7.5-7.9c2.6,0,4.6,1.1,5.9,2.9l0.5-2.5h2.5v21.4h-2.5l-0.5-2.5
			c-1.3,1.8-3.4,2.9-5.9,2.9c-4.7,0-7.5-3.1-7.5-7.9V131.8z M587.3,138.1v-6c0-3-1.9-5.3-5.1-5.3c-3.1,0-4.8,2.2-4.8,5v6.7
			c0,2.8,1.6,5,4.8,5C585.4,143.4,587.3,141.1,587.3,138.1z"/>
	</g>
</g>
<g id="Guides" class="st1">
</g>
</svg>
